<svg xmlns="http://www.w3.org/2000/svg" width="442" height="409"><g fill-rule="nonzero" fill="none"><path d="M431.1 58.73c2.21 26.63-3.24 39.76-8.52 46.11a21.29 21.29 0 0 1-15.82 7.82c-4.53.27-8.34-1.47-11.64-5.3-4.09-4.74-7-12.42-8.45-21.41 8.93-1.89 27.12-9 31.41-36.11 2.78-17.55-4.13-25.25-11.52-26.59-13-2.4-25.18 12.45-28.35 27.8A101.56 101.56 0 0 0 376.35 80c-.38 11.88-3.07 25.06-9.17 26a2.47 2.47 0 0 1-2.3-.64c-4.39-3.93-5.71-19.18-5.25-28.75v-21.7c0-20-5.57-30.31-16.57-30.59h-.34c-10.41.49-17.49 9.92-21.07 28a18.86 18.86 0 0 0-3.23-3.5 15.63 15.63 0 0 0-12.95-3.29 16.29 16.29 0 0 0-8.29 4.05v-9l-9.46 1.7c0 18.82-.55 33.76-10.18 43.86l-.34.34c-3.63-17.39-12.45-29.09-23.33-29.09a14.8 14.8 0 0 0-3.81.55 19.41 19.41 0 0 0-3.72 1.79h-.05c-8.36 4.7-14.68 16.76-16.76 32.86v.33a93.45 93.45 0 0 0-.73 11.58c0 .76 0 1.48.06 2.22-2.85 27.33-14 30.63-19.18 30.63-6 0-10.59-3.68-13.9-11.26-2.21-5.09-3.69-11.68-4.4-19.36-.14-4.37-.36-7.61-.47-9V95.8c0-15 3.64-27.75 9.51-33.37a8 8 0 0 1 5.87-2.59 6.51 6.51 0 0 1 5.21 2.75c3.94 5.16 4.75 16.85 2.07 29.24l9.94-1.65c1.93-11.57 1.63-25.32-4.5-33.33a16 16 0 0 0-12.31-6.46 17.35 17.35 0 0 0-12.82 5.21c-7.78 7.45-12.43 22.48-12.43 40.2 0 3.33.14 7.17.49 11.21.41 14.85-.56 38.07-7.66 46.33a6.06 6.06 0 0 1-4.38 2.46 5.22 5.22 0 0 1-4.37-1.66c-5.95-5.89-7.17-24.66-6.54-35.11V73.17 13.44l-9.45 1.69V73.26c-.53 73.92-15.61 86.79-24.56 87.88-3.13.37-6-.85-8.65-3.77-3.29-3.57-5.78-9-7.35-15.48 11.58-4.2 27.88-15.21 30.32-36.24 2.6-22.34-8.83-25.95-12.39-26.53-10.1-1.64-23.5 8.59-27.5 27.93-4.57 22.07-.47 45.39 10 56.72 4.17 4.54 9.15 6.89 14.49 6.89a17.25 17.25 0 0 0 2.26-.14c11.15-1.35 19.4-10.44 24.86-27.48 1.32 6.93 3.69 13.7 7.89 17.86a14.68 14.68 0 0 0 10.56 4.42h1.12a15.48 15.48 0 0 0 10.9-5.73c4.7-5.47 7.28-14.56 8.65-24.13 5.94 9.25 13.72 11.41 19.61 11.41 10.37 0 18.27-6.14 23.24-17.51 4.33 11.22 11.8 18.05 21 18.05 14.79 0 25.12-17.62 25.12-42.85 0-2.28-.1-4.49-.25-6.67a59.72 59.72 0 0 0 5.64-5.21 40.21 40.21 0 0 0 3.35-4v50.91l9.45-1.8V76.33c.66-9.57 3.26-20.34 9.88-21.47a6.13 6.13 0 0 1 5.32 1.25C317.57 60.4 319 73 319.08 77v48l9.45-1.69V82.42a154.51 154.51 0 0 1 1.86-25.57c1.42-8.38 4.93-22.45 12.56-23 4.7.28 7.19 7.58 7.19 21.13V76.3c-.23 4.86-.8 27.9 8.4 36.13a11.72 11.72 0 0 0 8 3.11 13.84 13.84 0 0 0 2.11-.17c6.48-1 10.55-6 13.09-12.25a40 40 0 0 0 6.26 10.42c4.87 5.65 11.05 8.6 18 8.6h1.38a30.76 30.76 0 0 0 22.56-11.22c9.24-11.11 12.78-29.21 10.6-53.82l-9.44 1.63zM108.59 109c2.73-13.22 10.82-20.56 16-20.56.261 0 .522.02.78.06 3.81.61 5.57 6.93 4.51 16.1-2 16.91-14.83 24.63-22.51 27.76a79.65 79.65 0 0 1 1.22-23.36zm141.73-41a6.6 6.6 0 0 1 3.55-1.22c6.05 0 12.68 10.79 14.9 26.53-5 3-9.7 3.76-14 2.32-6-2-9.74-8-10.29-12.89-.93-8.33 2.97-12.67 5.84-14.74zm3.55 69.87c-7.34 0-15.12-11-15.61-31.34.38-3.84.597-7.923.65-12.25a25.08 25.08 0 0 0 12.86 10.31c3.77 1.27 10 2.18 17.75-1.12v1c.02 21.74-8.05 33.44-15.65 33.44v-.04zm131.82-66.4h-.1A93.71 93.71 0 0 1 387.47 53c2.7-13.09 11.18-20.49 16.48-20.49.305 0 .61.027.91.08 3.77.68 5.29 6.89 3.88 15.81-3.28 20.73-16.09 26.54-22.89 28.17-.02-2.52-.11-4.34-.16-5.1zM45.55 64.08L28 195.69C23.81 138.5 14.52 82 9.3 53L0 54.68C6.73 92 20.28 175.57 20.77 246.49l10.29-1.85L50.4 99.3l18.94 126.09 11.09-2C81.33 195.46 86 115.83 110.14 0l-10 1.8c-16.77 81.4-24 144.81-27 184.74l-18.63-124-8.96 1.54z" fill="#FFF"/><path d="M406.33 202.74c2.21 26.63-3.25 39.76-8.52 46.11a21.3 21.3 0 0 1-15.81 7.82c-4.54.27-8.35-1.48-11.64-5.3-4.09-4.74-7-12.43-8.45-21.41 8.92-1.89 27.12-9 31.41-36.11 2.77-17.55-4.13-25.25-11.52-26.59-13.05-2.39-25.18 12.45-28.36 27.79a100.57 100.57 0 0 0-1.56 31.76c.56 15.31-.15 41.6-7.77 50.42a5.81 5.81 0 0 1-4.2 2.38 5 5 0 0 1-4.13-1.58c-6.15-6.08-7.42-26.11-6.78-37.31V139.05l-9.46 1.76v99.51c-.22 4-1.45 33.51 9.58 44.43a14.44 14.44 0 0 0 10.34 4.33h1.09a15.27 15.27 0 0 0 10.72-5.65c5.5-6.38 8.15-17.85 9.35-29.37a30.35 30.35 0 0 0 2.57 3.51c4.87 5.65 11.05 8.61 17.95 8.61h1.38a30.85 30.85 0 0 0 22.56-11.22c9.23-11.12 12.77-29.22 10.6-53.83l-9.35 1.61zm-45.41 16.41a94.27 94.27 0 0 1 1.8-22.19c2.71-13.09 11.19-20.49 16.49-20.49.305-.004.61.023.91.08 3.77.68 5.29 6.89 3.88 15.81-3.29 20.78-16.16 26.57-23 28.18 0-.6-.06-1.07-.08-1.39zM114.21 192.88v148.76c0 32.34-18.57 57.68-42.28 57.68-28.83 0-44.39-27.55-44.39-53.46 0-21.27 6.06-37.56 17.05-45.87 7.42-5.6 14.64-7.6 22.14-6.08 8.75 1.77 16.21 8.09 21.43 13.86l7.15-6.21c-6.22-6.9-15.39-14.61-26.67-16.91-10.15-2.06-20.17.56-29.75 7.8-13.42 10.14-20.8 29.11-20.8 53.41 0 35.87 23.14 62.92 53.84 62.92 29 0 51.73-29.49 51.73-67.14V191.18l-9.45 1.7z" fill="#00C29A"/><path d="M308.54 307.42v-123.3l-9.45 1.75V203c-4.26-6.26-9.69-9.94-15.77-9.94-13.9 0-24.45 19.13-25.06 44.84v2.31a84.38 84.38 0 0 0 .59 10c.73 13.74 1.4 37-7.27 38.82-2 .41-2.92-.09-3.51-.57-4.61-3.77-4.61-18.86-4.61-25.31 0-1.8.13-4.26.29-7.11.73-13.21 1.73-31.29-6.64-38.6-2.17-1.9-6-3.92-11.77-2.81-4.98.96-9.133 4.053-12.46 9.28v-10.5l-9.45 1.76v36.51c-.83 51.75-9 58.88-12.69 59.41a3.79 3.79 0 0 1-3.44-1.09c-4.68-4.31-6.68-17.48-7.17-29.71.07-3.69.09-7.41.09-11.13v-30.49l-9.45 1.75v25.24c-.1 1.69-.36 7.33-.11 14.39-1 48.95-9.21 53-11.82 53a6.87 6.87 0 0 1-5.22-2.21c-5.22-5.32-6.1-18.25-6-22.89v-74.13l-9.45 1.76v72.24c0 2.07-.22 20.48 8.69 29.6a16.42 16.42 0 0 0 12 5.07c10.8 0 16.25-12.18 18.93-29.39a18.4 18.4 0 0 0 3.11 3.9 13.22 13.22 0 0 0 11.1 3.45c4.76-.68 8.47-3.77 11.35-8.65v14.85l9.45-1.95v-56.57c.4-16.55 3.9-42.19 14.25-44.19 2.19-.43 3.16.12 3.76.65 4.9 4.27 3.94 21.63 3.42 31-.17 3-.31 5.57-.31 7.63 0 12.6.63 26.55 8.1 32.64a13.09 13.09 0 0 0 11.38 2.5c9.55-2 13.34-11.6 14.65-23.07 4.12 5 9.31 7.91 15.24 7.91 6.19 0 11.57-3.12 15.77-8.55V323a185.63 185.63 0 0 1-1.39 25.63c-2.23 15.51-7.47 25.36-16 30.13a27.2 27.2 0 0 1-20.3 2 23.47 23.47 0 0 1-14.37-11c-3.78-6.84-4.41-13.25-1.93-19.6 4.53-11.62 18.64-20.36 30.38-24.79 6-1.88 12.24-3.607 18.72-5.18v-9.71a300.57 300.57 0 0 0-19.13 5.12v-.1c-.88.29-1.78.61-2.68.95a288.73 288.73 0 0 0-74.8 35.55c-35.5 23.83-52.32 47-53 48l7.68 5.5c.43-.59 28.67-39.06 88.35-66.69a35.94 35.94 0 0 0-4.35 7.91c-3.51 9-2.68 18.28 2.46 27.6a32.82 32.82 0 0 0 20.05 15.48 37.64 37.64 0 0 0 10.43 1.47 35.19 35.19 0 0 0 17.06-4.27c11.32-6.3 18.13-18.42 20.79-37.05 1.39-9.69 1.51-19.46 1.51-29.44V317a330.58 330.58 0 0 1 55-5.82l-.22-9.45a340.65 340.65 0 0 0-54.78 5.69zm-25.22-33.72c-6.4 0-13.12-8.37-15.08-24-.06-1.05-.11-2.08-.17-3.07-.19-3.34-.35-6.22-.36-8.36.48-20.57 8.45-35.73 15.61-35.73 7.4 0 15.68 16.13 15.68 37.7 0 21.76-8.08 33.46-15.68 33.46z" fill="#00C29A"/><path fill="#FFF" d="M148.78 185.91V213l-5.68.77v-27.16l-4 .5v-5.39l13.67-1.72v5.37zM210.16 164.77v26.42l-5.67.74v-26.49l-4 .48v-5.27l13.67-1.6v5.24zM236.62 203.61v-13.17l-4.93.65v13.19l-5.67.77v-31.48l5.67-.7v13l4.93-.63v-13l5.67-.7v31.28zM257.74 186.68v-31.1l12.46-1.47v5.13l-6.79.82v7.71l6-.74v5.13l-6 .75v7.89l6.93-.89V185zM168.56 222.07c-5.16.72-8.65-3.91-8.65-14.57v-1.66c0-10.65 3.49-16.22 8.65-16.87 5.16-.65 8.65 4 8.65 14.57v1.65c0 10.59-3.49 16.16-8.65 16.88zm2.88-17.76c0-8.27-1.16-10.42-2.88-10.19-1.72.23-2.88 2.67-2.88 10.95v1.66c0 8.29 1.16 10.43 2.88 10.19 1.72-.24 2.88-2.69 2.88-11v-1.61z"/></g></svg>